<mxfile host="app.diagrams.net" modified="2023-10-22T13:27:38.172Z" agent="Mozilla/5.0 (Windows NT 10.0; Win64; x64) AppleWebKit/537.36 (KHTML, like Gecko) Chrome/118.0.0.0 Safari/537.36" version="22.0.6" etag="9fahNK3EBYeVMyC0qfSK" type="github">
  <diagram name="Page-1" id="Z4To2q2jdx-NBv6Lf0as">
    <mxGraphModel>
      <root>
        <mxCell id="0" />
        <mxCell id="1" parent="0" />
      </root>
    </mxGraphModel>
  </diagram>
</mxfile>
